<svg xmlns="http://www.w3.org/2000/svg" xmlns:xlink="http://www.w3.org/1999/xlink" width="500" zoomAndPan="magnify" viewBox="0 0 375 374.999991" height="500" preserveAspectRatio="xMidYMid meet" version="1.0"><defs><clipPath id="58284ccbc5"><path d="M 98.160156 159.375 L 210.660156 159.375 L 210.660156 271.875 L 98.160156 271.875 Z M 98.160156 159.375 " clip-rule="nonzero"/></clipPath><clipPath id="701849b576"><path d="M 115.410156 159.375 L 193.410156 159.375 C 197.984375 159.375 202.375 161.191406 205.609375 164.425781 C 208.84375 167.664062 210.660156 172.050781 210.660156 176.625 L 210.660156 254.625 C 210.660156 259.199219 208.84375 263.585938 205.609375 266.824219 C 202.375 270.058594 197.984375 271.875 193.410156 271.875 L 115.410156 271.875 C 110.835938 271.875 106.449219 270.058594 103.214844 266.824219 C 99.980469 263.585938 98.160156 259.199219 98.160156 254.625 L 98.160156 176.625 C 98.160156 172.050781 99.980469 167.664062 103.214844 164.425781 C 106.449219 161.191406 110.835938 159.375 115.410156 159.375 Z M 115.410156 159.375 " clip-rule="nonzero"/></clipPath><clipPath id="271a9c8af6"><path d="M 164.339844 103.125 L 276.839844 103.125 L 276.839844 215.625 L 164.339844 215.625 Z M 164.339844 103.125 " clip-rule="nonzero"/></clipPath><clipPath id="cbc53abb98"><path d="M 220.589844 103.125 C 189.523438 103.125 164.339844 128.308594 164.339844 159.375 C 164.339844 190.441406 189.523438 215.625 220.589844 215.625 C 251.65625 215.625 276.839844 190.441406 276.839844 159.375 C 276.839844 128.308594 251.65625 103.125 220.589844 103.125 Z M 220.589844 103.125 " clip-rule="nonzero"/></clipPath></defs><g clip-path="url(#58284ccbc5)"><g clip-path="url(#701849b576)"><path fill="#d9d9d9" d="M 98.160156 159.375 L 210.660156 159.375 L 210.660156 271.875 L 98.160156 271.875 Z M 98.160156 159.375 " fill-opacity="1" fill-rule="nonzero"/></g></g><g clip-path="url(#271a9c8af6)"><g clip-path="url(#cbc53abb98)"><path fill="#cfcfcf" d="M 164.339844 103.125 L 276.839844 103.125 L 276.839844 215.625 L 164.339844 215.625 Z M 164.339844 103.125 " fill-opacity="1" fill-rule="nonzero"/></g></g></svg>
